<svg width="50" height="50" viewBox="0 0 50 50" fill="none" xmlns="http://www.w3.org/2000/svg">
<path d="M31.2506 4.6875C30.3877 4.6875 29.6881 5.38705 29.6881 6.25C29.6881 7.11294 30.3877 7.8125 31.2506 7.8125H33.334C38.224 7.8125 42.1881 11.7766 42.1881 16.6667V18.75C42.1881 19.6129 42.8877 20.3125 43.7506 20.3125C44.6136 20.3125 45.3131 19.6129 45.3131 18.75V16.6667C45.3131 10.0508 39.9499 4.6875 33.334 4.6875H31.2506Z" fill="url(#paint0_linear_1351_3235)"/>
<path d="M16.6673 4.6875C10.0514 4.6875 4.68815 10.0508 4.68815 16.6667V18.75C4.68815 19.6129 5.38771 20.3125 6.25065 20.3125C7.1136 20.3125 7.81315 19.6129 7.81315 18.75V16.6667C7.81315 11.7766 11.7773 7.8125 16.6673 7.8125H18.7507C19.6136 7.8125 20.3132 7.11295 20.3132 6.25C20.3132 5.38706 19.6136 4.6875 18.7507 4.6875H16.6673Z" fill="url(#paint1_linear_1351_3235)"/>
<path d="M2.08398 23.4375C1.22104 23.4375 0.521484 24.1371 0.521484 25C0.521484 25.8629 1.22104 26.5625 2.08398 26.5625H47.9173C48.7803 26.5625 49.4798 25.8629 49.4798 25C49.4798 24.1371 48.7803 23.4375 47.9173 23.4375H2.08398Z" fill="url(#paint2_linear_1351_3235)"/>
<path d="M7.81315 31.25C7.81315 30.3871 7.1136 29.6875 6.25065 29.6875C5.38771 29.6875 4.68815 30.3871 4.68815 31.25V33.3333C4.68815 39.9492 10.0514 45.3125 16.6673 45.3125H18.7507C19.6136 45.3125 20.3132 44.6129 20.3132 43.75C20.3132 42.8871 19.6136 42.1875 18.7507 42.1875H16.6673C11.7773 42.1875 7.81315 38.2234 7.81315 33.3333V31.25Z" fill="url(#paint3_linear_1351_3235)"/>
<path d="M45.3131 31.25C45.3131 30.3871 44.6136 29.6875 43.7506 29.6875C42.8877 29.6875 42.1881 30.3871 42.1881 31.25V33.3333C42.1881 38.2234 38.224 42.1875 33.334 42.1875H31.2506C30.3877 42.1875 29.6881 42.8871 29.6881 43.75C29.6881 44.6129 30.3877 45.3125 31.2506 45.3125H33.334C39.9499 45.3125 45.3131 39.9492 45.3131 33.3333V31.25Z" fill="url(#paint4_linear_1351_3235)"/>
<defs>
<linearGradient id="paint0_linear_1351_3235" x1="25.0007" y1="4.6875" x2="25.0007" y2="45.3125" gradientUnits="userSpaceOnUse">
<stop stop-color="white"/>
<stop offset="1" stop-color="#999999"/>
</linearGradient>
<linearGradient id="paint1_linear_1351_3235" x1="25.0007" y1="4.6875" x2="25.0007" y2="45.3125" gradientUnits="userSpaceOnUse">
<stop stop-color="white"/>
<stop offset="1" stop-color="#999999"/>
</linearGradient>
<linearGradient id="paint2_linear_1351_3235" x1="25.0007" y1="4.6875" x2="25.0007" y2="45.3125" gradientUnits="userSpaceOnUse">
<stop stop-color="white"/>
<stop offset="1" stop-color="#999999"/>
</linearGradient>
<linearGradient id="paint3_linear_1351_3235" x1="25.0007" y1="4.6875" x2="25.0007" y2="45.3125" gradientUnits="userSpaceOnUse">
<stop stop-color="white"/>
<stop offset="1" stop-color="#999999"/>
</linearGradient>
<linearGradient id="paint4_linear_1351_3235" x1="25.0007" y1="4.6875" x2="25.0007" y2="45.3125" gradientUnits="userSpaceOnUse">
<stop stop-color="white"/>
<stop offset="1" stop-color="#999999"/>
</linearGradient>
</defs>
</svg>
