<svg width="50" height="50" viewBox="0 0 50 50" fill="none" xmlns="http://www.w3.org/2000/svg">
<path fill-rule="evenodd" clip-rule="evenodd" d="M35.4167 9.89616C35.4167 6.73203 37.9818 4.16699 41.1459 4.16699C44.31 4.16699 46.8751 6.73203 46.8751 9.89616C46.8751 13.0603 44.31 15.6253 41.1459 15.6253C37.9818 15.6253 35.4167 13.0603 35.4167 9.89616ZM41.1459 7.29199C39.7077 7.29199 38.5417 8.45792 38.5417 9.89616C38.5417 11.3344 39.7077 12.5003 41.1459 12.5003C42.5842 12.5003 43.7501 11.3344 43.7501 9.89616C43.7501 8.45792 42.5842 7.29199 41.1459 7.29199Z" fill="url(#paint0_linear_1327_728)"/>
<path d="M44.5978 17.4831C45.5572 17.0459 46.8444 17.6148 46.8594 18.669C46.8749 19.7626 46.8749 20.9754 46.8749 22.3261L46.8749 25.1693C46.8754 28.3956 46.8757 30.3636 46.391 32.0167C45.243 35.9318 42.1814 38.9934 38.2663 40.1414C36.6132 40.6261 34.6452 40.6258 31.4189 40.6254L29.9695 40.6253L29.8439 40.6255C28.0372 40.6371 26.2773 41.2011 24.8005 42.2418L24.6981 42.3146L19.2591 46.1996C16.1247 48.4385 12.0059 45.2052 13.4365 41.6289C13.6287 41.1482 13.2747 40.6253 12.757 40.6253H11.5034C6.30078 40.6253 2.08325 36.4078 2.08325 31.2052V22.3262C2.08324 19.4685 2.08323 17.228 2.23036 15.4273C2.38017 13.5936 2.69029 12.0788 3.3889 10.7077C4.53739 8.45371 6.36997 6.62113 8.62399 5.47264C9.9951 4.77403 11.5099 4.46391 13.3435 4.3141C15.1443 4.16697 17.3848 4.16698 20.2425 4.16699H28.7157C30.0664 4.16699 31.2792 4.16698 32.3729 4.18252C33.4271 4.19749 33.996 5.48469 33.5588 6.44411C33.3287 6.94913 32.8365 7.31412 32.2816 7.30658C31.2267 7.29226 30.0277 7.29199 28.6458 7.29199H20.3124C17.3697 7.29199 15.2566 7.29321 13.598 7.42872C11.9576 7.56275 10.8999 7.8203 10.0427 8.25704C8.37669 9.10592 7.02218 10.4604 6.1733 12.1265C5.73656 12.9836 5.47901 14.0414 5.34498 15.6817C5.20947 17.3404 5.20825 19.4534 5.20825 22.3962V31.2052C5.20825 34.6819 8.02667 37.5003 11.5034 37.5003H12.757C15.4856 37.5003 17.3513 40.2561 16.338 42.7895C16.0665 43.468 16.848 44.0815 17.4427 43.6567L22.8818 39.7717L23.0004 39.6873C24.9985 38.2793 27.3796 37.5162 29.8239 37.5006L29.9695 37.5003H31.1129C34.7419 37.5003 36.2214 37.4844 37.3871 37.1426C40.2808 36.2941 42.5437 34.0312 43.3922 31.1375C43.734 29.9718 43.7499 28.4923 43.7499 24.8633V22.3962C43.7499 21.0142 43.7496 19.8152 43.7353 18.7603C43.7278 18.2054 44.0928 17.7133 44.5978 17.4831Z" fill="url(#paint1_linear_1327_728)"/>
<defs>
<linearGradient id="paint0_linear_1327_728" x1="41.1459" y1="4.16699" x2="41.1459" y2="15.6253" gradientUnits="userSpaceOnUse">
<stop stop-color="white"/>
<stop offset="1" stop-color="#999999"/>
</linearGradient>
<linearGradient id="paint1_linear_1327_728" x1="24.4791" y1="4.16699" x2="24.4791" y2="46.9384" gradientUnits="userSpaceOnUse">
<stop stop-color="white"/>
<stop offset="1" stop-color="#999999"/>
</linearGradient>
</defs>
</svg>
