<svg width="50" height="50" viewBox="0 0 50 50" fill="none" xmlns="http://www.w3.org/2000/svg">
<path d="M31.2502 4.6875C30.3872 4.6875 29.6877 5.38705 29.6877 6.25C29.6877 7.11294 30.3872 7.8125 31.2502 7.8125H33.3335C38.2235 7.8125 42.1877 11.7766 42.1877 16.6667V18.75C42.1877 19.6129 42.8872 20.3125 43.7502 20.3125C44.6131 20.3125 45.3127 19.6129 45.3127 18.75V16.6667C45.3127 10.0508 39.9494 4.6875 33.3335 4.6875H31.2502Z" fill="url(#paint0_linear_1351_3067)"/>
<path d="M16.6668 4.6875C10.0509 4.6875 4.68766 10.0508 4.68766 16.6667V18.75C4.68766 19.6129 5.38722 20.3125 6.25016 20.3125C7.11311 20.3125 7.81266 19.6129 7.81266 18.75V16.6667C7.81266 11.7766 11.7768 7.8125 16.6668 7.8125H18.7502C19.6131 7.8125 20.3127 7.11295 20.3127 6.25C20.3127 5.38706 19.6131 4.6875 18.7502 4.6875H16.6668Z" fill="url(#paint1_linear_1351_3067)"/>
<path d="M2.0835 23.4375C1.22055 23.4375 0.520996 24.1371 0.520996 25C0.520996 25.8629 1.22055 26.5625 2.0835 26.5625H47.9168C48.7798 26.5625 49.4793 25.8629 49.4793 25C49.4793 24.1371 48.7798 23.4375 47.9168 23.4375H2.0835Z" fill="url(#paint2_linear_1351_3067)"/>
<path d="M7.81266 31.25C7.81266 30.3871 7.11311 29.6875 6.25016 29.6875C5.38722 29.6875 4.68766 30.3871 4.68766 31.25V33.3333C4.68766 39.9492 10.0509 45.3125 16.6668 45.3125H18.7502C19.6131 45.3125 20.3127 44.6129 20.3127 43.75C20.3127 42.8871 19.6131 42.1875 18.7502 42.1875H16.6668C11.7768 42.1875 7.81266 38.2234 7.81266 33.3333V31.25Z" fill="url(#paint3_linear_1351_3067)"/>
<path d="M45.3127 31.25C45.3127 30.3871 44.6131 29.6875 43.7502 29.6875C42.8872 29.6875 42.1877 30.3871 42.1877 31.25V33.3333C42.1877 38.2234 38.2235 42.1875 33.3335 42.1875H31.2502C30.3872 42.1875 29.6877 42.8871 29.6877 43.75C29.6877 44.6129 30.3872 45.3125 31.2502 45.3125H33.3335C39.9494 45.3125 45.3127 39.9492 45.3127 33.3333V31.25Z" fill="url(#paint4_linear_1351_3067)"/>
<defs>
<linearGradient id="paint0_linear_1351_3067" x1="25.0002" y1="4.6875" x2="25.0002" y2="45.3125" gradientUnits="userSpaceOnUse">
<stop stop-color="white"/>
<stop offset="1" stop-color="#999999"/>
</linearGradient>
<linearGradient id="paint1_linear_1351_3067" x1="25.0002" y1="4.6875" x2="25.0002" y2="45.3125" gradientUnits="userSpaceOnUse">
<stop stop-color="white"/>
<stop offset="1" stop-color="#999999"/>
</linearGradient>
<linearGradient id="paint2_linear_1351_3067" x1="25.0002" y1="4.6875" x2="25.0002" y2="45.3125" gradientUnits="userSpaceOnUse">
<stop stop-color="white"/>
<stop offset="1" stop-color="#999999"/>
</linearGradient>
<linearGradient id="paint3_linear_1351_3067" x1="25.0002" y1="4.6875" x2="25.0002" y2="45.3125" gradientUnits="userSpaceOnUse">
<stop stop-color="white"/>
<stop offset="1" stop-color="#999999"/>
</linearGradient>
<linearGradient id="paint4_linear_1351_3067" x1="25.0002" y1="4.6875" x2="25.0002" y2="45.3125" gradientUnits="userSpaceOnUse">
<stop stop-color="white"/>
<stop offset="1" stop-color="#999999"/>
</linearGradient>
</defs>
</svg>
