<svg width="50" height="50" viewBox="0 0 50 50" fill="none" xmlns="http://www.w3.org/2000/svg">
<path fill-rule="evenodd" clip-rule="evenodd" d="M9.19542 18.2524C9.89312 14.5879 11.6594 11.0853 14.4912 8.24996C22.0091 0.722669 34.1987 0.722669 41.7165 8.24996C44.0098 10.5462 46.0352 13.9452 46.921 17.7188C47.8121 21.5153 47.565 25.7799 45.1581 29.6577C45.0349 29.8563 44.9587 29.9794 44.9048 30.0714C44.88 30.1139 44.8669 30.1381 44.8614 30.1485C44.8564 30.1618 44.8533 30.1709 44.8515 30.1767C44.8515 30.1836 44.8518 30.1953 44.853 30.213C44.8544 30.2212 44.8579 30.2392 44.8649 30.2702C44.8827 30.349 44.9098 30.4544 44.958 30.6408L44.972 30.6948C45.2485 31.7626 45.4757 32.6403 45.6092 33.3494C45.7437 34.0632 45.8214 34.7837 45.6784 35.4873C45.2707 37.4934 43.7044 39.0628 41.6982 39.4716C40.9944 39.615 40.274 39.5369 39.5608 39.4023C38.8524 39.2685 37.9757 39.041 36.9093 38.7642L36.8552 38.7502C36.6692 38.7019 36.5639 38.6748 36.4852 38.6569C36.4545 38.65 36.4367 38.6465 36.4284 38.645C36.4121 38.644 36.4009 38.6436 36.3939 38.6435C36.3882 38.6454 36.3795 38.6483 36.3674 38.6529C36.3568 38.6585 36.3324 38.6716 36.2896 38.6966C36.1969 38.7507 36.0729 38.8273 35.8733 38.9508C34.5817 39.7499 33.2376 40.3085 31.8759 40.6621C31.3707 41.3658 30.8027 42.0373 30.172 42.6687C28.3139 44.5292 25.4759 46.2177 22.3146 46.9748C19.1315 47.7373 15.5048 47.5775 12.2231 45.547C12.064 45.4485 11.9668 45.3885 11.8951 45.3464C11.8378 45.36 11.7592 45.3803 11.6288 45.4142L11.5762 45.4278C10.7049 45.6539 9.97518 45.8433 9.38251 45.9552C8.78523 46.068 8.14917 46.1405 7.51612 46.0115C5.7554 45.6527 4.38094 44.2754 4.02314 42.5151C3.89453 41.8823 3.96678 41.2464 4.07938 40.6486C4.1911 40.0554 4.38021 39.3249 4.60607 38.4524L4.61969 38.3998C4.65386 38.2678 4.67418 38.1888 4.68779 38.1313C4.64592 38.0601 4.58614 37.9636 4.48756 37.8048C2.45905 34.5365 2.25476 30.9464 3.00165 27.7643C3.74319 24.6052 5.4373 21.7607 7.36102 19.8346C7.94066 19.2542 8.55416 18.7267 9.19542 18.2524ZM16.7023 10.4583C22.9995 4.15323 33.2083 4.15323 39.5054 10.4583C41.4012 12.3564 43.1298 15.2427 43.8786 18.4329C44.6221 21.6004 44.3844 24.9785 42.503 28.0098C42.4852 28.0385 42.4671 28.0674 42.4489 28.0966C42.2695 28.3846 42.0764 28.6947 41.9644 28.9762C41.7657 29.4758 41.6969 29.9279 41.738 30.4638C41.761 30.765 41.842 31.0756 41.9131 31.3484C41.9197 31.3739 41.9263 31.3991 41.9327 31.4239C42.2266 32.5591 42.4265 33.3345 42.5382 33.9278C42.6513 34.5284 42.6361 34.766 42.616 34.8648C42.4577 35.644 41.8499 36.2514 41.0743 36.4095C40.9766 36.4294 40.7402 36.4447 40.1406 36.3315C39.5483 36.2197 38.7741 36.0196 37.6402 35.7254C37.6154 35.7189 37.5902 35.7124 37.5647 35.7057C37.2925 35.6346 36.9823 35.5535 36.6819 35.5302C36.1464 35.4888 35.6972 35.5568 35.198 35.7547C34.917 35.8661 34.6059 36.0593 34.3166 36.239C34.2871 36.2573 34.2579 36.2755 34.2289 36.2934C34.172 36.3286 34.1149 36.3633 34.0578 36.3973C35.9416 30.7724 34.6475 24.3157 30.172 19.8346C25.5338 15.1905 18.7751 13.9667 13.0181 16.1611C13.802 14.0822 15.0298 12.1329 16.7023 10.4583ZM11.5005 20.4487C16.557 17.0291 23.4854 17.5618 27.9609 22.0429C32.3996 26.4872 32.9607 33.3488 29.638 38.4021C29.1602 39.1288 28.6014 39.8191 27.9609 40.4604C26.5101 41.9131 24.1851 43.3134 21.5867 43.9358C19.0103 44.5529 16.2809 44.3829 13.8674 42.8895C13.8435 42.8747 13.8189 42.8594 13.7938 42.8438C13.5614 42.6993 13.2821 42.5257 13.0259 42.4241C12.5758 42.2456 12.1638 42.1833 11.681 42.2206C11.4072 42.2418 11.1268 42.3153 10.9075 42.3727C10.8856 42.3785 10.8644 42.384 10.8438 42.3894C9.9062 42.6327 9.27925 42.7945 8.80273 42.8845C8.31894 42.9758 8.16698 42.9549 8.14008 42.9495C7.60988 42.8414 7.19395 42.4261 7.08552 41.8926C7.07982 41.8646 7.05913 41.7115 7.15039 41.2269C7.24029 40.7496 7.40197 40.1217 7.64497 39.183C7.6503 39.1624 7.65586 39.1411 7.66157 39.1192C7.719 38.8994 7.79236 38.6187 7.81338 38.3443C7.85041 37.861 7.78736 37.4466 7.60821 36.9962C7.5061 36.7395 7.33248 36.4612 7.18822 36.2299C7.17267 36.205 7.15746 36.1806 7.14271 36.1568C5.63965 33.7352 5.44473 31.0314 6.04397 28.4784C6.64858 25.9026 8.04596 23.571 9.57212 22.0429C10.1751 21.4391 10.8214 20.9079 11.5005 20.4487Z" fill="url(#paint0_linear_1339_1531)"/>
<path d="M22.9162 31.2503C22.9162 32.4009 23.8489 33.3337 24.9995 33.3337C26.1501 33.3337 27.0828 32.4009 27.0828 31.2503C27.0828 30.0997 26.1501 29.167 24.9995 29.167C23.8489 29.167 22.9162 30.0997 22.9162 31.2503Z" fill="url(#paint1_linear_1339_1531)"/>
<path d="M16.6662 31.2503C16.6662 32.4009 17.5989 33.3337 18.7495 33.3337C19.9001 33.3337 20.8328 32.4009 20.8328 31.2503C20.8328 30.0997 19.9001 29.167 18.7495 29.167C17.5989 29.167 16.6662 30.0997 16.6662 31.2503Z" fill="url(#paint2_linear_1339_1531)"/>
<path d="M10.4162 31.2503C10.4162 32.4009 11.3489 33.3337 12.4995 33.3337C13.6501 33.3337 14.5828 32.4009 14.5828 31.2503C14.5828 30.0997 13.6501 29.167 12.4995 29.167C11.3489 29.167 10.4162 30.0997 10.4162 31.2503Z" fill="url(#paint3_linear_1339_1531)"/>
<defs>
<linearGradient id="paint0_linear_1339_1531" x1="24.9995" y1="2.60449" x2="24.9995" y2="47.3958" gradientUnits="userSpaceOnUse">
<stop stop-color="white"/>
<stop offset="1" stop-color="#999999"/>
</linearGradient>
<linearGradient id="paint1_linear_1339_1531" x1="24.9995" y1="2.60449" x2="24.9995" y2="47.3958" gradientUnits="userSpaceOnUse">
<stop stop-color="white"/>
<stop offset="1" stop-color="#999999"/>
</linearGradient>
<linearGradient id="paint2_linear_1339_1531" x1="24.9995" y1="2.60449" x2="24.9995" y2="47.3958" gradientUnits="userSpaceOnUse">
<stop stop-color="white"/>
<stop offset="1" stop-color="#999999"/>
</linearGradient>
<linearGradient id="paint3_linear_1339_1531" x1="24.9995" y1="2.60449" x2="24.9995" y2="47.3958" gradientUnits="userSpaceOnUse">
<stop stop-color="white"/>
<stop offset="1" stop-color="#999999"/>
</linearGradient>
</defs>
</svg>
