<svg width="100" height="100" viewBox="0 0 100 100" fill="none" xmlns="http://www.w3.org/2000/svg">
<path d="M20.8333 79.1667H26.7708L67.5 38.4375L61.5625 32.5L20.8333 73.2292V79.1667ZM16.6667 87.5C15.4861 87.5 14.4972 87.1 13.7 86.3C12.9028 85.5 12.5028 84.5111 12.5 83.3333V73.2292C12.5 72.1181 12.7083 71.0583 13.125 70.05C13.5417 69.0417 14.1319 68.1569 14.8958 67.3958L67.5 14.8958C68.3333 14.1319 69.2542 13.5417 70.2625 13.125C71.2708 12.7083 72.3292 12.5 73.4375 12.5C74.5458 12.5 75.6222 12.7083 76.6667 13.125C77.7111 13.5417 78.6139 14.1667 79.375 15L85.1042 20.8333C85.9375 21.5972 86.5444 22.5 86.925 23.5417C87.3056 24.5833 87.4972 25.625 87.5 26.6667C87.5 27.7778 87.3083 28.8375 86.925 29.8458C86.5417 30.8542 85.9347 31.7736 85.1042 32.6042L32.6042 85.1042C31.8403 85.868 30.9542 86.4583 29.9458 86.875C28.9375 87.2917 27.8792 87.5 26.7708 87.5H16.6667ZM64.4792 35.5208L61.5625 32.5L67.5 38.4375L64.4792 35.5208Z" fill="url(#paint0_linear_1080_57047)"/>
<defs>
<linearGradient id="paint0_linear_1080_57047" x1="50" y1="12.5" x2="50" y2="87.5" gradientUnits="userSpaceOnUse">
<stop stop-color="#999999"/>
<stop offset="1"/>
</linearGradient>
</defs>
</svg>
