<svg width="50" height="50" viewBox="0 0 50 50" fill="none" xmlns="http://www.w3.org/2000/svg">
<path fill-rule="evenodd" clip-rule="evenodd" d="M29.22 11.9958C27.9023 7.80654 22.0984 7.80654 20.7808 11.9958C20.5929 12.593 20.0753 12.9503 19.5421 12.9503C15.1483 12.9503 13.5585 18.6039 16.9175 21.1249C17.3804 21.4723 17.5976 22.1157 17.4074 22.7205C16.7618 24.773 17.5898 26.693 19.0024 27.7531C20.4223 28.8188 22.5081 29.0617 24.2516 27.7531C24.7016 27.4154 25.2991 27.4154 25.7492 27.7531C27.4927 29.0617 29.5785 28.8188 30.9984 27.7531C32.411 26.693 33.239 24.773 32.5934 22.7205C32.4032 22.1157 32.6204 21.4723 33.0833 21.1249C36.4423 18.6039 34.8525 12.9503 30.4587 12.9503C29.9255 12.9503 29.4079 12.593 29.22 11.9958ZM19.5421 16.0753C21.4954 16.0753 23.1813 14.7788 23.7618 12.9334C24.1621 11.6607 25.8387 11.6607 26.239 12.9334C26.8195 14.7788 28.5054 16.0753 30.4587 16.0753C31.0629 16.0753 31.5139 16.447 31.6973 17.0299C31.8817 17.6164 31.7311 18.2325 31.2074 18.6255C29.6588 19.7878 29.0343 21.8203 29.6124 23.6582C29.8258 24.3367 29.5704 24.9176 29.1226 25.2538C28.682 25.5844 28.1304 25.6331 27.625 25.2538C26.0635 24.0819 23.9373 24.0819 22.3758 25.2538C21.8704 25.633 21.3188 25.5844 20.8782 25.2538C20.4304 24.9176 20.175 24.3367 20.3884 23.6582C20.9665 21.8203 20.342 19.7878 18.7934 18.6255C18.2697 18.2325 18.119 17.6164 18.3035 17.0299C18.4869 16.447 18.9378 16.0753 19.5421 16.0753Z" fill="url(#paint0_linear_1333_1185)"/>
<path fill-rule="evenodd" clip-rule="evenodd" d="M25.0004 0.520508C14.9327 0.520508 6.77123 8.68198 6.77123 18.7497C6.77123 21.1967 7.2542 23.5341 8.13087 25.6693C7.52585 26.3697 6.9654 27.3409 6.21085 28.6483L2.40673 35.2373C1.937 36.0506 1.50266 36.8026 1.25225 37.4252C1.00697 38.035 0.698071 39.0924 1.3807 40.0711C2.07197 41.0622 3.18161 41.121 3.83922 41.0883C4.50505 41.0552 5.35147 40.8886 6.2607 40.7096L7.90917 40.3853C8.82305 40.2056 9.36526 40.1019 9.76756 40.0742C9.9513 40.0616 10.0499 40.0701 10.0985 40.0782C10.1208 40.082 10.1313 40.0855 10.1339 40.0864C10.1362 40.0872 10.1374 40.0877 10.1401 40.0893C10.1427 40.0908 10.1438 40.0916 10.1456 40.0931C10.1478 40.095 10.156 40.1023 10.1704 40.1198C10.2017 40.1577 10.2584 40.2389 10.3394 40.4044C10.5165 40.7666 10.6979 41.288 10.9991 42.1693L11.5425 43.7589C11.8421 44.6358 12.1211 45.4523 12.4253 46.0455C12.7258 46.6313 13.3315 47.5629 14.5355 47.666C15.7244 47.7678 16.4857 46.9716 16.8911 46.4543C17.3051 45.9262 17.7392 45.174 18.2087 44.3605L21.936 37.9046C22.1646 37.5087 22.3731 37.1475 22.5602 36.8168C23.359 36.9237 24.1736 36.9788 25.0004 36.9788C25.6405 36.9788 26.2733 36.9458 26.8972 36.8812C27.0748 37.1942 27.2708 37.5337 27.4844 37.9037L31.2122 44.3605C31.6817 45.174 32.1159 45.9262 32.5298 46.4543C32.9353 46.9716 33.6965 47.7678 34.8854 47.666C36.0894 47.5629 36.6951 46.6313 36.9956 46.0455C37.2999 45.4523 37.5788 44.6359 37.8784 43.759L38.4218 42.1693C38.7231 41.288 38.9044 40.7666 39.0816 40.4043C39.1625 40.2389 39.2192 40.1577 39.2505 40.1198C39.2523 40.1176 39.254 40.1156 39.2557 40.1137C39.2669 40.1006 39.2735 40.0948 39.2754 40.0931L39.278 40.0911L39.2809 40.0893C39.2835 40.0877 39.2847 40.0872 39.287 40.0864C39.2897 40.0855 39.3002 40.082 39.3225 40.0782C39.371 40.0701 39.4697 40.0616 39.6534 40.0742C40.0557 40.1019 40.5979 40.2056 41.5118 40.3853L43.1603 40.7096C44.0695 40.8886 44.9159 41.0552 45.5817 41.0883C46.2393 41.121 47.349 41.0622 48.0403 40.0711C48.7229 39.0924 48.414 38.035 48.1687 37.4252C47.9183 36.8027 47.484 36.0507 47.0143 35.2375L43.171 28.5805C42.6008 27.5919 42.1387 26.7908 41.6661 26.1461C42.6714 23.8841 43.2296 21.3803 43.2296 18.7497C43.2296 8.68198 35.0681 0.520508 25.0004 0.520508ZM9.89623 18.7497C9.89623 10.4079 16.6586 3.64551 25.0004 3.64551C33.3422 3.64551 40.1046 10.4079 40.1046 18.7497C40.1046 21.247 39.4997 23.5984 38.4299 25.6699C36.2876 29.8179 32.2816 32.8436 27.5271 33.6437C26.7064 33.7818 25.8624 33.8538 25.0004 33.8538C23.9924 33.8538 23.009 33.7553 22.0587 33.5679C17.4023 32.6492 13.5091 29.5861 11.4577 25.4461C10.4586 23.4298 9.89623 21.1577 9.89623 18.7497ZM8.82642 30.3681C9.22144 29.6839 9.52157 29.167 9.76699 28.7653C12.0205 32.1863 15.3961 34.8039 19.3732 36.0934L15.5562 42.7047C15.2836 43.1769 15.0664 43.5511 14.8849 43.8485C14.7686 43.5323 14.633 43.1385 14.4641 42.6446L13.9285 41.0775C13.6643 40.3045 13.4209 39.5921 13.1465 39.0312C12.8436 38.412 12.4212 37.7979 11.7026 37.3829C10.9839 36.968 10.2409 36.9093 9.55316 36.9566C8.93026 36.9994 8.19156 37.1448 7.39006 37.3025L5.76508 37.6222C5.25288 37.7229 4.84403 37.8023 4.51202 37.8598C4.67885 37.5538 4.89432 37.1786 5.16693 36.7065L8.82642 30.3681ZM30.1354 36.2453C34.1463 35.07 37.5812 32.5546 39.9252 29.2188C40.1144 29.5384 40.3339 29.9167 40.5945 30.3681L44.254 36.7065C44.5266 37.1786 44.7421 37.5538 44.9089 37.8598C44.5769 37.8023 44.1681 37.7229 43.6559 37.6222L42.0311 37.3026C41.2296 37.1448 40.4907 36.9994 39.8678 36.9566C39.1801 36.9093 38.437 36.968 37.7184 37.3829C36.9997 37.7979 36.5773 38.412 36.2744 39.0312C36.0001 39.5921 35.7566 40.3045 35.4925 41.0775L34.9568 42.6446C34.788 43.1385 34.6523 43.5323 34.536 43.8485C34.3545 43.5511 34.1373 43.1769 33.8647 42.7047L30.1354 36.2453Z" fill="url(#paint1_linear_1333_1185)"/>
<defs>
<linearGradient id="paint0_linear_1333_1185" x1="24.7105" y1="0.520508" x2="24.7105" y2="47.6749" gradientUnits="userSpaceOnUse">
<stop stop-color="white"/>
<stop offset="1" stop-color="#999999"/>
</linearGradient>
<linearGradient id="paint1_linear_1333_1185" x1="24.7105" y1="0.520508" x2="24.7105" y2="47.6749" gradientUnits="userSpaceOnUse">
<stop stop-color="white"/>
<stop offset="1" stop-color="#999999"/>
</linearGradient>
</defs>
</svg>
