<svg width="50" height="50" viewBox="0 0 50 50" fill="none" xmlns="http://www.w3.org/2000/svg">
<path fill-rule="evenodd" clip-rule="evenodd" d="M26.5623 10.417C26.5623 9.55405 25.8628 8.85449 24.9998 8.85449C24.1369 8.85449 23.4373 9.55405 23.4373 10.417V11.0588C22.7566 11.2296 22.0886 11.4965 21.4526 11.8636C15.7821 15.1375 16.5028 23.5397 22.648 25.8001L23.4373 26.0904V35.8741C22.323 35.5598 21.3274 34.8274 20.7041 33.7477L19.9217 32.3925C19.4902 31.6452 18.5346 31.3891 17.7873 31.8206C17.0399 32.2521 16.7839 33.2077 17.2154 33.955L17.9978 35.3102C19.2029 37.3976 21.2346 38.7078 23.4373 39.0701V39.5837C23.4373 40.4466 24.1369 41.1462 24.9998 41.1462C25.8628 41.1462 26.5623 40.4466 26.5623 39.5837V38.9419C27.2432 38.7712 27.9114 38.5043 28.5475 38.137C34.2181 34.8631 33.4973 26.4609 27.3521 24.2006L26.5623 23.9102L26.5623 14.1264C27.6768 14.4406 28.6726 15.1732 29.296 16.2529L30.0784 17.6081C30.5099 18.3555 31.4655 18.6115 32.2129 18.1801C32.9602 17.7486 33.2162 16.793 32.7848 16.0456L32.0023 14.6904C30.7971 12.603 28.7653 11.2926 26.5623 10.9305V10.417ZM23.0151 14.57C23.1538 14.4899 23.2947 14.418 23.4373 14.3539L23.4373 22.7502C20.0478 21.2533 19.7303 16.4665 23.0151 14.57ZM26.985 35.4307C26.8462 35.5108 26.7051 35.5829 26.5623 35.647V27.2503C29.9523 28.7469 30.27 33.5341 26.985 35.4307Z" fill="url(#paint0_linear_1350_3053)"/>
<path fill-rule="evenodd" clip-rule="evenodd" d="M24.9998 2.60449C12.631 2.60449 2.604 12.6314 2.604 25.0003C2.604 37.3692 12.631 47.3962 24.9998 47.3962C37.3687 47.3962 47.3957 37.3692 47.3957 25.0003C47.3957 12.6314 37.3687 2.60449 24.9998 2.60449ZM5.729 25.0003C5.729 14.3573 14.3569 5.72949 24.9998 5.72949C35.6428 5.72949 44.2707 14.3573 44.2707 25.0003C44.2707 35.6433 35.6428 44.2712 24.9998 44.2712C14.3569 44.2712 5.729 35.6433 5.729 25.0003Z" fill="url(#paint1_linear_1350_3053)"/>
<defs>
<linearGradient id="paint0_linear_1350_3053" x1="24.9998" y1="2.60449" x2="24.9998" y2="47.3962" gradientUnits="userSpaceOnUse">
<stop stop-color="white"/>
<stop offset="1" stop-color="#999999"/>
</linearGradient>
<linearGradient id="paint1_linear_1350_3053" x1="24.9998" y1="2.60449" x2="24.9998" y2="47.3962" gradientUnits="userSpaceOnUse">
<stop stop-color="white"/>
<stop offset="1" stop-color="#999999"/>
</linearGradient>
</defs>
</svg>
