<svg width="50" height="50" viewBox="0 0 50 50" fill="none" xmlns="http://www.w3.org/2000/svg">
<path d="M37.4999 34.8958C38.3629 34.8958 39.0624 34.1963 39.0624 33.3333C39.0624 32.4704 38.3629 31.7708 37.4999 31.7708L24.9999 31.7708C24.137 31.7708 23.4374 32.4704 23.4374 33.3333C23.4374 34.1963 24.137 34.8958 24.9999 34.8958L37.4999 34.8958Z" fill="url(#paint0_linear_1328_738)"/>
<path fill-rule="evenodd" clip-rule="evenodd" d="M38.2188 4.83461C36.4181 4.68748 34.1776 4.68749 31.3198 4.6875H18.68C15.8223 4.68749 13.5818 4.68748 11.781 4.83461C9.94741 4.98442 8.4326 5.29454 7.06149 5.99315C4.80747 7.14163 2.97489 8.97421 1.8264 11.2282C1.12779 12.5993 0.817674 14.1142 0.66786 15.9478C0.520735 17.7485 0.520743 19.989 0.520752 22.8468V22.9866C0.520743 25.8443 0.520735 28.0848 0.66786 29.8856C0.817674 31.7192 1.12779 33.234 1.8264 34.6051C2.97489 36.8591 4.80747 38.6917 7.06149 39.8402C8.4326 40.5388 9.94741 40.8489 11.781 40.9987C13.5817 41.1459 15.8222 41.1458 18.6799 41.1458H23.4374V44.9666C22.1367 45.0576 20.8419 45.2623 19.5681 45.5807L16.2876 46.4008C15.4504 46.6101 14.9414 47.4585 15.1507 48.2956C15.36 49.1328 16.2084 49.6418 17.0455 49.4325L20.3261 48.6124C21.8604 48.2288 23.4302 48.037 24.9999 48.037C26.5697 48.037 28.1394 48.2288 29.6738 48.6124L32.9543 49.4325C33.7915 49.6418 34.6398 49.1328 34.8491 48.2956C35.0584 47.4585 34.5494 46.6101 33.7122 46.4008L30.4317 45.5807C29.1579 45.2623 27.8632 45.0576 26.5624 44.9666V41.1458H31.3199C34.1776 41.1458 36.4181 41.1459 38.2188 40.9987C40.0524 40.8489 41.5672 40.5388 42.9383 39.8402C45.1924 38.6917 47.0249 36.8591 48.1734 34.6051C48.872 33.234 49.1822 31.7192 49.332 29.8856C49.4791 28.0849 49.4791 25.8444 49.4791 22.9867V22.8467C49.4791 19.989 49.4791 17.7485 49.332 15.9478C49.1822 14.1142 48.872 12.5993 48.1734 11.2282C47.0249 8.97421 45.1924 7.14164 42.9383 5.99315C41.5672 5.29454 40.0524 4.98442 38.2188 4.83461ZM37.9643 37.8841C36.3057 38.0196 34.1926 38.0208 31.2499 38.0208H18.7499C15.8072 38.0208 13.6941 38.0196 12.0355 37.8841C10.3951 37.7501 9.33735 37.4925 8.48021 37.0558C6.81419 36.2069 5.45968 34.8524 4.6108 33.1864C4.17406 32.3292 3.91651 31.2715 3.78248 29.6311C3.64697 27.9725 3.64575 25.8594 3.64575 22.9167C3.64575 19.9739 3.64697 17.8609 3.78248 16.2023C3.91651 14.5619 4.17406 13.5041 4.6108 12.647C5.45968 10.9809 6.81419 9.62643 8.48021 8.77755C9.33735 8.34081 10.3951 8.08325 12.0355 7.94923C13.6941 7.81372 15.8072 7.8125 18.7499 7.8125H31.2499C34.1926 7.8125 36.3057 7.81372 37.9643 7.94923C39.6047 8.08325 40.6625 8.34081 41.5196 8.77755C43.1856 9.62643 44.5402 10.9809 45.389 12.647C45.8258 13.5041 46.0833 14.5619 46.2174 16.2023C46.3529 17.8609 46.3541 19.9739 46.3541 22.9167C46.3541 25.8594 46.3529 27.9725 46.2174 29.6311C46.0833 31.2715 45.8258 32.3292 45.389 33.1864C44.5402 34.8524 43.1856 36.2069 41.5196 37.0558C40.6625 37.4925 39.6047 37.7501 37.9643 37.8841Z" fill="url(#paint1_linear_1328_738)"/>
<path d="M16.6666 33.3333C16.6666 34.4839 15.7338 35.4167 14.5833 35.4167C13.4327 35.4167 12.4999 34.4839 12.4999 33.3333C12.4999 32.1827 13.4327 31.25 14.5833 31.25C15.7338 31.25 16.6666 32.1827 16.6666 33.3333Z" fill="url(#paint2_linear_1328_738)"/>
<defs>
<linearGradient id="paint0_linear_1328_738" x1="24.9999" y1="4.6875" x2="24.9999" y2="49.4795" gradientUnits="userSpaceOnUse">
<stop stop-color="white"/>
<stop offset="1" stop-color="#999999"/>
</linearGradient>
<linearGradient id="paint1_linear_1328_738" x1="24.9999" y1="4.6875" x2="24.9999" y2="49.4795" gradientUnits="userSpaceOnUse">
<stop stop-color="white"/>
<stop offset="1" stop-color="#999999"/>
</linearGradient>
<linearGradient id="paint2_linear_1328_738" x1="24.9999" y1="4.6875" x2="24.9999" y2="49.4795" gradientUnits="userSpaceOnUse">
<stop stop-color="white"/>
<stop offset="1" stop-color="#999999"/>
</linearGradient>
</defs>
</svg>
