<svg width="50" height="50" viewBox="0 0 50 50" fill="none" xmlns="http://www.w3.org/2000/svg">
<path d="M23.1246 2.60449C16.0506 2.60449 10.5773 8.80455 11.4547 15.824L11.62 17.1466C11.8619 19.0819 11.155 21.015 9.72164 22.3377C6.75147 25.0785 5.92627 29.4409 7.69013 33.0773L7.90544 33.5211C9.54955 36.9106 12.9856 39.0628 16.7527 39.0628H33.8794C37.1288 39.0628 40.1531 37.4028 41.8977 34.6615C44.3605 30.7918 43.7082 25.7154 40.3472 22.594L40.2557 22.5091C39.5607 21.8636 39.0252 21.0852 38.6708 20.2334C38.526 19.8855 38.4115 19.5254 38.3286 19.1572C38.1393 18.3153 37.3032 17.7863 36.4613 17.9757C35.6194 18.1651 35.0904 19.0011 35.2798 19.843C35.4023 20.3874 35.5716 20.9197 35.7856 21.4339C36.3096 22.6933 37.1017 23.8447 38.1292 24.7989L38.2206 24.8838C40.4766 26.9789 40.9144 30.3863 39.2614 32.9836C38.0903 34.8236 36.0605 35.9378 33.8794 35.9378H16.7527C14.1828 35.9378 11.8387 34.4696 10.7171 32.1573L10.5018 31.7134C9.33914 29.3165 9.88308 26.441 11.8409 24.6343C14.0154 22.6277 15.0879 19.695 14.7209 16.759L14.5556 15.4364C13.9113 10.2821 17.9302 5.72949 23.1246 5.72949H26.6724C28.2083 5.72949 29.6354 6.12507 30.871 6.81313C31.625 7.23296 32.5765 6.96212 32.9963 6.20819C33.4162 5.45425 33.1453 4.50273 32.3914 4.0829C30.7025 3.14245 28.7536 2.60449 26.6724 2.60449H23.1246Z" fill="url(#paint0_linear_1332_1135)"/>
<path d="M20.3813 42.8128C19.8636 42.1225 18.8842 41.9826 18.1938 42.5003C17.5035 43.0181 17.3636 43.9975 17.8813 44.6878L18.5063 45.5212C21.9438 50.1045 28.8188 50.1045 32.2563 45.5212L32.8813 44.6878C33.3991 43.9975 33.2592 43.0181 32.5688 42.5003C31.8785 41.9826 30.8991 42.1225 30.3813 42.8128L29.7563 43.6462C27.5688 46.5628 23.1938 46.5628 21.0063 43.6462L20.3813 42.8128Z" fill="url(#paint1_linear_1332_1135)"/>
<path d="M39.9648 12.5003C39.9648 14.8015 38.0993 16.667 35.7981 16.667C33.4969 16.667 31.6315 14.8015 31.6315 12.5003C31.6315 10.1991 33.4969 8.33366 35.7981 8.33366C38.0993 8.33366 39.9648 10.1991 39.9648 12.5003Z" fill="url(#paint2_linear_1332_1135)"/>
<defs>
<linearGradient id="paint0_linear_1332_1135" x1="25.0773" y1="2.60449" x2="25.0773" y2="48.9587" gradientUnits="userSpaceOnUse">
<stop stop-color="white"/>
<stop offset="1" stop-color="#999999"/>
</linearGradient>
<linearGradient id="paint1_linear_1332_1135" x1="25.0773" y1="2.60449" x2="25.0773" y2="48.9587" gradientUnits="userSpaceOnUse">
<stop stop-color="white"/>
<stop offset="1" stop-color="#999999"/>
</linearGradient>
<linearGradient id="paint2_linear_1332_1135" x1="25.0773" y1="2.60449" x2="25.0773" y2="48.9587" gradientUnits="userSpaceOnUse">
<stop stop-color="white"/>
<stop offset="1" stop-color="#999999"/>
</linearGradient>
</defs>
</svg>
