<svg width="50" height="50" viewBox="0 0 50 50" fill="none" xmlns="http://www.w3.org/2000/svg">
<path d="M31.25 7.8125C32.1129 7.8125 32.8125 7.11294 32.8125 6.25C32.8125 5.38706 32.1129 4.6875 31.25 4.6875L24.9057 4.6875C21.0796 4.68748 18.0804 4.68747 15.701 4.94527C13.2728 5.20835 11.3053 5.75484 9.62549 6.97532C8.60852 7.71419 7.71419 8.60852 6.97532 9.62549C5.75484 11.3053 5.20835 13.2728 4.94527 15.701C4.68747 18.0804 4.68748 21.0796 4.6875 24.9057V25.0943C4.68748 28.9204 4.68747 31.9196 4.94527 34.299C5.20835 36.7272 5.75484 38.6947 6.97532 40.3745C7.71419 41.3915 8.60852 42.2858 9.62549 43.0247C11.3053 44.2452 13.2728 44.7917 15.701 45.0547C18.0804 45.3125 21.0795 45.3125 24.9055 45.3125H25.0943C28.9203 45.3125 31.9196 45.3125 34.299 45.0547C36.7272 44.7917 38.6947 44.2452 40.3745 43.0247C41.3915 42.2858 42.2858 41.3915 43.0247 40.3745C44.2452 38.6947 44.7917 36.7272 45.0547 34.299C45.3125 31.9196 45.3125 28.9205 45.3125 25.0945V18.75C45.3125 17.8871 44.6129 17.1875 43.75 17.1875C42.8871 17.1875 42.1875 17.8871 42.1875 18.75V25C42.1875 28.9408 42.1854 31.7708 41.9479 33.9624C41.7136 36.1247 41.2654 37.4793 40.4965 38.5377C39.9504 39.2894 39.2894 39.9504 38.5377 40.4965C37.4793 41.2654 36.1247 41.7136 33.9624 41.9479C31.7708 42.1854 28.9408 42.1875 25 42.1875C21.0592 42.1875 18.2292 42.1854 16.0376 41.9479C13.8753 41.7136 12.5207 41.2654 11.4623 40.4965C10.7106 39.9504 10.0496 39.2894 9.5035 38.5377C8.73457 37.4793 8.28636 36.1247 8.05209 33.9624C7.81465 31.7708 7.8125 28.9408 7.8125 25C7.8125 21.0592 7.81465 18.2292 8.05209 16.0376C8.28636 13.8753 8.73457 12.5207 9.5035 11.4623C10.0496 10.7106 10.7106 10.0496 11.4623 9.50349C12.5207 8.73456 13.8753 8.28636 16.0376 8.05209C18.2292 7.81464 21.0592 7.8125 25 7.8125H31.25Z" fill="url(#paint0_linear_1351_3206)"/>
<path d="M13.1805 30.2643C12.8005 31.039 13.1205 31.9752 13.8952 32.3552C14.67 32.7352 15.6061 32.4153 15.9862 31.6405L19.0285 25.4383C19.9715 23.5159 22.7431 23.6098 23.5538 25.5916C25.3854 30.0688 31.6468 30.2809 33.7771 25.9379L36.8195 19.7357C37.1995 18.961 36.8795 18.0248 36.1048 17.6448C35.33 17.2648 34.3939 17.5847 34.0139 18.3595L30.9715 24.5617C30.0285 26.4841 27.2569 26.3902 26.4462 24.4084C24.6146 19.9312 18.3532 19.7191 16.2229 24.0621L13.1805 30.2643Z" fill="url(#paint1_linear_1351_3206)"/>
<path fill-rule="evenodd" clip-rule="evenodd" d="M36.4583 8.33333C36.4583 11.2098 38.7902 13.5417 41.6667 13.5417C44.5431 13.5417 46.875 11.2098 46.875 8.33333C46.875 5.45685 44.5431 3.125 41.6667 3.125C38.7902 3.125 36.4583 5.45685 36.4583 8.33333ZM39.5833 8.33333C39.5833 9.48393 40.5161 10.4167 41.6667 10.4167C42.8173 10.4167 43.75 9.48393 43.75 8.33333C43.75 7.18274 42.8173 6.25 41.6667 6.25C40.5161 6.25 39.5833 7.18274 39.5833 8.33333Z" fill="url(#paint2_linear_1351_3206)"/>
<defs>
<linearGradient id="paint0_linear_1351_3206" x1="25.7812" y1="3.125" x2="25.7813" y2="45.3125" gradientUnits="userSpaceOnUse">
<stop stop-color="white"/>
<stop offset="1" stop-color="#999999"/>
</linearGradient>
<linearGradient id="paint1_linear_1351_3206" x1="25.7812" y1="3.125" x2="25.7813" y2="45.3125" gradientUnits="userSpaceOnUse">
<stop stop-color="white"/>
<stop offset="1" stop-color="#999999"/>
</linearGradient>
<linearGradient id="paint2_linear_1351_3206" x1="25.7812" y1="3.125" x2="25.7813" y2="45.3125" gradientUnits="userSpaceOnUse">
<stop stop-color="white"/>
<stop offset="1" stop-color="#999999"/>
</linearGradient>
</defs>
</svg>
