<svg width="50" height="50" viewBox="0 0 50 50" fill="none" xmlns="http://www.w3.org/2000/svg">
<path d="M26.5625 14.5833C26.5625 13.7204 25.8629 13.0208 25 13.0208C24.1371 13.0208 23.4375 13.7204 23.4375 14.5833V22.1217L18.2921 16.9763C17.6819 16.3661 16.6925 16.3661 16.0823 16.9763C15.4721 17.5864 15.4721 18.5758 16.0823 19.186L20.3339 23.4375H14.5833C13.7204 23.4375 13.0208 24.1371 13.0208 25C13.0208 25.8629 13.7204 26.5625 14.5833 26.5625H21.2278L16.0826 31.7076C15.4725 32.3178 15.4725 33.3072 16.0826 33.9174C16.6928 34.5275 17.6822 34.5275 18.2924 33.9174L23.4375 28.7722V35.4167C23.4375 36.2796 24.1371 36.9792 25 36.9792C25.8629 36.9792 26.5625 36.2796 26.5625 35.4167V29.6661L30.8137 33.9174C31.4239 34.5275 32.4132 34.5275 33.0234 33.9174C33.6336 33.3072 33.6336 32.3178 33.0234 31.7076L27.8783 26.5625H35.4167C36.2796 26.5625 36.9792 25.8629 36.9792 25C36.9792 24.1371 36.2796 23.4375 35.4167 23.4375H28.7722L33.0237 19.186C33.6339 18.5758 33.6339 17.5864 33.0237 16.9763C32.4136 16.3661 31.4242 16.3661 30.814 16.9763L26.5625 21.2278V14.5833Z" fill="url(#paint0_linear_1359_3820)"/>
<path fill-rule="evenodd" clip-rule="evenodd" d="M34.299 4.94527C31.9196 4.68747 28.9204 4.68748 25.0943 4.6875H24.9057C21.0796 4.68748 18.0804 4.68747 15.701 4.94527C13.2728 5.20835 11.3053 5.75484 9.62549 6.97532C8.60852 7.71419 7.71419 8.60852 6.97532 9.62549C5.75484 11.3053 5.20835 13.2728 4.94527 15.701C4.68747 18.0804 4.68748 21.0796 4.6875 24.9057V25.0943C4.68748 28.9204 4.68747 31.9196 4.94527 34.299C5.20835 36.7272 5.75484 38.6947 6.97532 40.3745C7.71419 41.3915 8.60852 42.2858 9.62549 43.0247C11.3053 44.2452 13.2728 44.7917 15.701 45.0547C18.0804 45.3125 21.0795 45.3125 24.9055 45.3125H25.0943C28.9203 45.3125 31.9196 45.3125 34.299 45.0547C36.7272 44.7917 38.6947 44.2452 40.3745 43.0247C41.3915 42.2858 42.2858 41.3915 43.0247 40.3745C44.2452 38.6947 44.7917 36.7272 45.0547 34.299C45.3125 31.9196 45.3125 28.9205 45.3125 25.0945V24.9057C45.3125 21.0797 45.3125 18.0804 45.0547 15.701C44.7917 13.2728 44.2452 11.3053 43.0247 9.62549C42.2858 8.60852 41.3915 7.71419 40.3745 6.97532C38.6947 5.75484 36.7272 5.20835 34.299 4.94527ZM11.4623 9.5035C12.5207 8.73457 13.8753 8.28636 16.0376 8.05209C18.2292 7.81465 21.0592 7.8125 25 7.8125C28.9408 7.8125 31.7708 7.81465 33.9624 8.05209C36.1247 8.28636 37.4793 8.73457 38.5377 9.5035C39.2894 10.0496 39.9504 10.7106 40.4965 11.4623C41.2654 12.5207 41.7136 13.8753 41.9479 16.0376C42.1854 18.2292 42.1875 21.0592 42.1875 25C42.1875 28.9408 42.1854 31.7708 41.9479 33.9624C41.7136 36.1247 41.2654 37.4793 40.4965 38.5377C39.9504 39.2894 39.2894 39.9504 38.5377 40.4965C37.4793 41.2654 36.1247 41.7136 33.9624 41.9479C31.7708 42.1854 28.9408 42.1875 25 42.1875C21.0592 42.1875 18.2292 42.1854 16.0376 41.9479C13.8753 41.7136 12.5207 41.2654 11.4623 40.4965C10.7106 39.9504 10.0496 39.2894 9.5035 38.5377C8.73457 37.4793 8.28636 36.1247 8.05209 33.9624C7.81465 31.7708 7.8125 28.9408 7.8125 25C7.8125 21.0592 7.81465 18.2292 8.05209 16.0376C8.28636 13.8753 8.73457 12.5207 9.5035 11.4623C10.0496 10.7106 10.7106 10.0496 11.4623 9.5035Z" fill="url(#paint1_linear_1359_3820)"/>
<defs>
<linearGradient id="paint0_linear_1359_3820" x1="25" y1="4.6875" x2="25" y2="45.3125" gradientUnits="userSpaceOnUse">
<stop stop-color="white"/>
<stop offset="1" stop-color="#999999"/>
</linearGradient>
<linearGradient id="paint1_linear_1359_3820" x1="25" y1="4.6875" x2="25" y2="45.3125" gradientUnits="userSpaceOnUse">
<stop stop-color="white"/>
<stop offset="1" stop-color="#999999"/>
</linearGradient>
</defs>
</svg>
