<svg width="50" height="50" viewBox="0 0 50 50" fill="none" xmlns="http://www.w3.org/2000/svg">
<path d="M33.3333 18.2295C34.1963 18.2295 34.8958 17.5299 34.8958 16.667C34.8958 15.804 34.1963 15.1045 33.3333 15.1045L16.6667 15.1045C15.8037 15.1045 15.1042 15.804 15.1042 16.667C15.1042 17.5299 15.8037 18.2295 16.6667 18.2295L33.3333 18.2295Z" fill="url(#paint0_linear_1310_595)"/>
<path d="M27.0833 23.4378C26.2204 23.4378 25.5208 24.1374 25.5208 25.0003C25.5208 25.8633 26.2204 26.5628 27.0833 26.5628H33.3333C34.1963 26.5628 34.8958 25.8633 34.8958 25.0003C34.8958 24.1374 34.1963 23.4378 33.3333 23.4378H27.0833Z" fill="url(#paint1_linear_1310_595)"/>
<path fill-rule="evenodd" clip-rule="evenodd" d="M34.299 2.86226C31.9196 2.60446 28.9204 2.60448 25.0943 2.60449H24.9057C21.0796 2.60448 18.0804 2.60446 15.701 2.86226C13.2728 3.12534 11.3053 3.67183 9.62549 4.89231C8.60852 5.63118 7.71419 6.52552 6.97532 7.54248C5.75484 9.22232 5.20835 11.1898 4.94527 13.618C4.68747 15.9974 4.68748 18.9966 4.6875 22.8227V27.1067C4.6875 29.5235 4.6875 31.6013 4.74868 33.3872C4.88241 37.2902 5.30478 40.1589 6.97532 42.4582C7.71419 43.4751 8.60852 44.3695 9.62549 45.1083C11.9248 46.7789 14.7935 47.2013 18.6965 47.335C20.4824 47.3962 22.5602 47.3962 24.9771 47.3962H25.0943C28.9203 47.3962 31.9196 47.3962 34.299 47.1384C36.7272 46.8753 38.6947 46.3288 40.3745 45.1083C41.3915 44.3695 42.2858 43.4751 43.0247 42.4582C44.2452 40.7783 44.7917 38.8109 45.0547 36.3827C45.3125 34.0033 45.3125 31.0042 45.3125 27.1781V22.8227C45.3125 18.9967 45.3125 15.9974 45.0547 13.618C44.7917 11.1898 44.2452 9.22232 43.0247 7.54248C42.2858 6.52551 41.3915 5.63118 40.3745 4.89231C38.6947 3.67183 36.7272 3.12534 34.299 2.86226ZM11.4623 7.42049C12.5207 6.65156 13.8753 6.20335 16.0376 5.96908C18.2292 5.73164 21.0592 5.72949 25 5.72949C28.9408 5.72949 31.7708 5.73164 33.9624 5.96908C36.1247 6.20335 37.4793 6.65156 38.5377 7.42049C39.2894 7.96661 39.9504 8.62764 40.4965 9.37931C41.2654 10.4377 41.7136 11.7923 41.9479 13.9546C42.1854 16.1461 42.1875 18.9762 42.1875 22.917V27.0837C42.1875 31.0244 42.1854 33.8545 41.9479 36.0461C41.7136 38.2084 41.2654 39.563 40.4965 40.6213C39.9504 41.373 39.2894 42.034 38.5377 42.5802C37.4793 43.3491 36.1247 43.7973 33.9624 44.0316C31.7708 44.269 28.9408 44.2712 25 44.2712C23.2326 44.2712 21.6838 44.2711 20.3087 44.2486C20.2996 43.2598 20.2688 42.5318 20.165 41.8764C19.3532 36.7506 15.3331 32.7305 10.2073 31.9186C9.55186 31.8148 8.82389 31.7841 7.83503 31.775C7.8126 30.3999 7.8125 28.8511 7.8125 27.0837V22.917C7.8125 18.9762 7.81465 16.1461 8.05209 13.9546C8.28636 11.7923 8.73457 10.4377 9.5035 9.37931C10.0496 8.62764 10.7106 7.96661 11.4623 7.42049ZM17.0785 42.3652C17.1461 42.7924 17.172 43.287 17.1817 44.1307C14.3477 43.9353 12.7112 43.4875 11.4623 42.5802C10.7106 42.034 10.0496 41.373 9.5035 40.6213C8.59615 39.3725 8.14837 37.736 7.95301 34.902C8.79664 34.9117 9.29128 34.9375 9.71843 35.0052C13.5071 35.6052 16.4784 38.5766 17.0785 42.3652Z" fill="url(#paint2_linear_1310_595)"/>
<defs>
<linearGradient id="paint0_linear_1310_595" x1="25" y1="2.60449" x2="25" y2="47.3962" gradientUnits="userSpaceOnUse">
<stop stop-color="white"/>
<stop offset="1" stop-color="#999999"/>
</linearGradient>
<linearGradient id="paint1_linear_1310_595" x1="25" y1="2.60449" x2="25" y2="47.3962" gradientUnits="userSpaceOnUse">
<stop stop-color="white"/>
<stop offset="1" stop-color="#999999"/>
</linearGradient>
<linearGradient id="paint2_linear_1310_595" x1="25" y1="2.60449" x2="25" y2="47.3962" gradientUnits="userSpaceOnUse">
<stop stop-color="white"/>
<stop offset="1" stop-color="#999999"/>
</linearGradient>
</defs>
</svg>
