<svg width="50" height="50" viewBox="0 0 50 50" fill="none" xmlns="http://www.w3.org/2000/svg">
<path d="M32.5757 25.2371C31.7127 25.2371 31.0132 25.9367 31.0132 26.7996C31.0132 27.6626 31.7127 28.3621 32.5757 28.3621H38.2575C39.1204 28.3621 39.82 27.6626 39.82 26.7996C39.82 25.9367 39.1204 25.2371 38.2575 25.2371H32.5757Z" fill="url(#paint0_linear_1310_591)"/>
<path fill-rule="evenodd" clip-rule="evenodd" d="M40.9322 7.03672C41.0934 7.96164 41.1325 9.06079 41.1433 10.3183C41.3241 10.4126 41.5014 10.5129 41.6757 10.6197C43.2875 11.6075 44.6428 12.9627 45.6305 14.5746C46.718 16.3493 47.1135 18.4061 47.2769 21.0203C47.3958 22.9222 47.3958 25.2354 47.3958 28.0764V28.1353C47.3958 29.7645 47.3958 31.2157 47.3743 32.5074C47.3076 36.5238 47.0475 39.3637 45.6305 41.6761C44.6428 43.288 43.2875 44.6432 41.6757 45.6309C40.1365 46.5741 38.3904 46.9945 36.258 47.1973C34.166 47.3962 31.5474 47.3962 28.2071 47.3962H21.7929C18.4526 47.3962 15.8338 47.3962 13.7418 47.1973C11.6094 46.9945 9.86336 46.5741 8.32415 45.6309C6.71229 44.6432 5.35708 43.288 4.36933 41.6761C3.4261 40.1369 3.00572 38.3908 2.80297 36.2584C2.60406 34.1664 2.60407 31.5477 2.60408 28.2073L2.60425 27.1121C2.57679 26.0825 2.58522 24.9316 2.59431 23.6906C2.59911 23.0365 2.60408 22.3574 2.60408 21.6579L2.60408 21.5676C2.60406 18.0004 2.60405 15.2008 2.83496 12.9788C3.07048 10.7126 3.56023 8.86412 4.66476 7.27919C5.33209 6.32162 6.1417 5.47684 7.06528 4.77728C8.60343 3.61221 10.4034 3.09428 12.5984 2.84635C14.7399 2.60446 17.434 2.60448 20.8467 2.6045L32.2385 2.6045C33.9022 2.60442 35.3123 2.60436 36.4365 2.76193C37.6372 2.93023 38.7391 3.30463 39.6208 4.22383C40.3861 5.0217 40.7487 5.98425 40.9322 7.03672ZM32.1286 5.7295C33.9322 5.7295 35.121 5.7331 36.0027 5.85668C36.8325 5.97299 37.1553 6.16781 37.3656 6.38705C37.5601 6.58981 37.7355 6.89592 37.8536 7.57337C37.9326 8.02634 37.9756 8.57998 37.9984 9.28823C37.1386 9.13084 36.2105 9.03386 35.1997 8.97148C33.3038 8.85449 30.9998 8.8545 28.1732 8.8545H21.7929C18.4525 8.85449 15.8339 8.85448 13.7418 9.05339C11.6094 9.25614 9.86336 9.67652 8.32415 10.6197C7.4944 11.1282 6.73266 11.7341 6.05404 12.4222C6.28271 10.9069 6.65719 9.88585 7.22859 9.06592C7.71105 8.37363 8.29316 7.76749 8.95213 7.26835C9.86407 6.5776 11.0367 6.16762 12.9492 5.95161C14.8949 5.73183 17.4126 5.7295 20.9438 5.7295H32.1286ZM9.95696 13.2843C10.9226 12.6925 12.1339 12.3454 14.0376 12.1644C15.9645 11.9811 18.4348 11.9795 21.8749 11.9795H28.1249C31.0095 11.9795 33.2185 11.9802 35.0072 12.0905C36.7943 12.2008 38.0436 12.4158 39.0285 12.7898C39.3974 12.9299 39.7312 13.0933 40.0429 13.2843C41.2343 14.0143 42.2359 15.016 42.966 16.2074C43.4798 17.0458 43.8071 18.0649 44.0033 19.5553H32.5757C28.5747 19.5553 25.3314 22.7987 25.3314 26.7996C25.3314 30.8005 28.5747 34.0439 32.5757 34.0439H44.2069C44.0865 37.0863 43.7545 38.7566 42.966 40.0433C42.2359 41.2347 41.2343 42.2363 40.0429 42.9664C39.0772 43.5582 37.8659 43.9053 35.9622 44.0863C34.0353 44.2695 31.565 44.2712 28.1249 44.2712H21.8749C18.4348 44.2712 15.9645 44.2695 14.0376 44.0863C12.1339 43.9053 10.9226 43.5582 9.95696 42.9664C8.76558 42.2363 7.76391 41.2347 7.03383 40.0433C6.44206 39.0776 6.09494 37.8663 5.91394 35.9627C5.73073 34.0357 5.72908 31.5654 5.72908 28.1253C5.72908 24.6853 5.73073 22.2149 5.91394 20.288C6.09494 18.3844 6.44206 17.1731 7.03383 16.2074C7.76391 15.016 8.76558 14.0143 9.95696 13.2843ZM28.4564 26.7996C28.4564 24.5246 30.3006 22.6803 32.5757 22.6803H44.224C44.2704 24.1885 44.2708 25.9679 44.2708 28.1253C44.2708 29.1335 44.2707 30.0608 44.2659 30.9189H32.5757C30.3006 30.9189 28.4564 29.0746 28.4564 26.7996Z" fill="url(#paint1_linear_1310_591)"/>
<defs>
<linearGradient id="paint0_linear_1310_591" x1="24.9907" y1="2.60449" x2="24.9907" y2="47.3962" gradientUnits="userSpaceOnUse">
<stop stop-color="white"/>
<stop offset="1" stop-color="#999999"/>
</linearGradient>
<linearGradient id="paint1_linear_1310_591" x1="24.9907" y1="2.60449" x2="24.9907" y2="47.3962" gradientUnits="userSpaceOnUse">
<stop stop-color="white"/>
<stop offset="1" stop-color="#999999"/>
</linearGradient>
</defs>
</svg>
