<svg width="50" height="50" viewBox="0 0 50 50" fill="none" xmlns="http://www.w3.org/2000/svg">
<g clip-path="url(#clip0_1332_1128)">
<path fill-rule="evenodd" clip-rule="evenodd" d="M26.5627 2.08301C26.5627 1.22006 25.8631 0.520508 25.0002 0.520508C24.1372 0.520508 23.4377 1.22006 23.4377 2.08301V8.85464C20.5912 8.86168 18.7215 8.9236 17.1317 9.44014C13.4848 10.6251 10.6256 13.4843 9.44063 17.1312C8.92409 18.721 8.86217 20.5907 8.85513 23.4372H2.0835C1.22055 23.4372 0.520996 24.1367 0.520996 24.9997C0.520996 25.8626 1.22055 26.5622 2.0835 26.5622H8.85513C8.86217 29.4086 8.92409 31.2783 9.44063 32.8681C10.6256 36.515 13.4848 39.3743 17.1317 40.5592C18.7215 41.0758 20.5912 41.1377 23.4377 41.1447V47.9163C23.4377 48.7793 24.1372 49.4788 25.0002 49.4788C25.8631 49.4788 26.5627 48.7793 26.5627 47.9163V41.1447C29.4091 41.1377 31.2788 41.0758 32.8686 40.5592C36.5155 39.3743 39.3747 36.515 40.5597 32.8681C41.0762 31.2783 41.1382 29.4086 41.1452 26.5622H47.9168C48.7798 26.5622 49.4793 25.8626 49.4793 24.9997C49.4793 24.1367 48.7798 23.4372 47.9168 23.4372H41.1452C41.1382 20.5907 41.0762 18.721 40.5597 17.1312C39.3747 13.4843 36.5155 10.6251 32.8686 9.44014C31.2788 8.9236 29.4091 8.86168 26.5627 8.85464V2.08301ZM18.0974 12.4122C19.1913 12.0568 20.5465 11.9922 23.4377 11.9811V12.4997C23.4377 13.3626 24.1372 14.0622 25.0002 14.0622C25.8631 14.0622 26.5627 13.3626 26.5627 12.4997V11.9811C29.4538 11.9922 30.809 12.0568 31.9029 12.4122C34.5985 13.288 36.7118 15.4014 37.5876 18.0969C37.9431 19.1908 38.0076 20.546 38.0188 23.4372H37.5002C36.6372 23.4372 35.9377 24.1367 35.9377 24.9997C35.9377 25.8626 36.6372 26.5622 37.5002 26.5622H38.0188C38.0076 29.4533 37.9431 30.8085 37.5876 31.9024C36.7118 34.598 34.5985 36.7113 31.9029 37.5872C30.809 37.9426 29.4538 38.0071 26.5627 38.0183V37.4997C26.5627 36.6367 25.8631 35.9372 25.0002 35.9372C24.1372 35.9372 23.4377 36.6367 23.4377 37.4997V38.0183C20.5465 38.0071 19.1913 37.9426 18.0974 37.5872C15.4019 36.7113 13.2885 34.598 12.4127 31.9024C12.0573 30.8085 11.9927 29.4533 11.9816 26.5622H12.5002C13.3631 26.5622 14.0627 25.8626 14.0627 24.9997C14.0627 24.1367 13.3631 23.4372 12.5002 23.4372H11.9816C11.9927 20.546 12.0573 19.1908 12.4127 18.0969C13.2885 15.4014 15.4019 13.288 18.0974 12.4122Z" fill="url(#paint0_linear_1332_1128)"/>
<path fill-rule="evenodd" clip-rule="evenodd" d="M19.7918 24.9997C19.7918 27.8762 22.1237 30.208 25.0002 30.208C27.8766 30.208 30.2085 27.8762 30.2085 24.9997C30.2085 22.1232 27.8766 19.7913 25.0002 19.7913C22.1237 19.7913 19.7918 22.1232 19.7918 24.9997ZM22.9168 24.9997C22.9168 26.1503 23.8496 27.083 25.0002 27.083C26.1508 27.083 27.0835 26.1503 27.0835 24.9997C27.0835 23.8491 26.1508 22.9163 25.0002 22.9163C23.8496 22.9163 22.9168 23.8491 22.9168 24.9997Z" fill="url(#paint1_linear_1332_1128)"/>
</g>
<defs>
<linearGradient id="paint0_linear_1332_1128" x1="25.0002" y1="0.520508" x2="25.0002" y2="49.4788" gradientUnits="userSpaceOnUse">
<stop stop-color="white"/>
<stop offset="1" stop-color="#999999"/>
</linearGradient>
<linearGradient id="paint1_linear_1332_1128" x1="25.0002" y1="0.520508" x2="25.0002" y2="49.4788" gradientUnits="userSpaceOnUse">
<stop stop-color="white"/>
<stop offset="1" stop-color="#999999"/>
</linearGradient>
<clipPath id="clip0_1332_1128">
<rect width="50" height="50" fill="white"/>
</clipPath>
</defs>
</svg>
