<svg width="50" height="50" viewBox="0 0 50 50" fill="none" xmlns="http://www.w3.org/2000/svg">
<path d="M16.6667 15.1045C15.8037 15.1045 15.1042 15.804 15.1042 16.667C15.1042 17.5299 15.8037 18.2295 16.6667 18.2295H22.9167C23.7796 18.2295 24.4792 17.5299 24.4792 16.667C24.4792 15.804 23.7796 15.1045 22.9167 15.1045H16.6667Z" fill="url(#paint0_linear_1310_587)"/>
<path d="M16.6667 23.4378C15.8037 23.4378 15.1042 24.1374 15.1042 25.0003C15.1042 25.8633 15.8037 26.5628 16.6667 26.5628H33.3333C34.1963 26.5628 34.8958 25.8633 34.8958 25.0003C34.8958 24.1374 34.1963 23.4378 33.3333 23.4378H16.6667Z" fill="url(#paint1_linear_1310_587)"/>
<path d="M16.6667 31.7712C15.8037 31.7712 15.1042 32.4707 15.1042 33.3337C15.1042 34.1966 15.8037 34.8962 16.6667 34.8962H22.9167C23.7796 34.8962 24.4792 34.1966 24.4792 33.3337C24.4792 32.4707 23.7796 31.7712 22.9167 31.7712H16.6667Z" fill="url(#paint2_linear_1310_587)"/>
<path fill-rule="evenodd" clip-rule="evenodd" d="M31.3035 2.66568C29.5177 2.60449 27.4398 2.60449 25.0231 2.60449H24.9057C21.0796 2.60448 18.0804 2.60446 15.701 2.86226C13.2728 3.12534 11.3053 3.67183 9.62549 4.89231C8.60852 5.63118 7.71419 6.52552 6.97532 7.54248C5.75484 9.22232 5.20835 11.1898 4.94527 13.618C4.68747 15.9974 4.68748 18.9966 4.6875 22.8227V27.1779C4.68748 31.004 4.68747 34.0032 4.94527 36.3827C5.20835 38.8109 5.75484 40.7783 6.97532 42.4582C7.71419 43.4751 8.60852 44.3695 9.62549 45.1083C11.3053 46.3288 13.2728 46.8753 15.701 47.1384C18.0804 47.3962 21.0795 47.3962 24.9055 47.3962H25.0943C28.9203 47.3962 31.9196 47.3962 34.299 47.1384C36.7272 46.8753 38.6947 46.3288 40.3745 45.1083C41.3915 44.3695 42.2858 43.4751 43.0247 42.4582C44.2452 40.7783 44.7917 38.8109 45.0547 36.3827C45.3125 34.0033 45.3125 31.0042 45.3125 27.1781V22.894C45.3125 20.4772 45.3125 18.3994 45.2513 16.6135C45.1176 12.7105 44.6952 9.84178 43.0247 7.54248C42.2858 6.52551 41.3915 5.63118 40.3745 4.89231C38.0752 3.22178 35.2065 2.7994 31.3035 2.66568ZM11.4623 7.42049C12.5207 6.65156 13.8753 6.20335 16.0376 5.96908C18.2292 5.73164 21.0592 5.72949 25 5.72949C26.7674 5.72949 28.3162 5.7296 29.6913 5.75203C29.7004 6.74088 29.7312 7.46885 29.835 8.12428C30.6468 13.2501 34.6669 17.2702 39.7927 18.082C40.4481 18.1858 41.1761 18.2166 42.165 18.2257C42.1874 19.6008 42.1875 21.1496 42.1875 22.917V27.0837C42.1875 31.0244 42.1854 33.8545 41.9479 36.0461C41.7136 38.2084 41.2654 39.563 40.4965 40.6213C39.9504 41.373 39.2894 42.034 38.5377 42.5802C37.4793 43.3491 36.1247 43.7973 33.9624 44.0316C31.7708 44.269 28.9408 44.2712 25 44.2712C21.0592 44.2712 18.2292 44.269 16.0376 44.0316C13.8753 43.7973 12.5207 43.3491 11.4623 42.5802C10.7106 42.034 10.0496 41.373 9.5035 40.6213C8.73457 39.563 8.28636 38.2084 8.05209 36.0461C7.81465 33.8545 7.8125 31.0244 7.8125 27.0837V22.917C7.8125 18.9762 7.81465 16.1461 8.05209 13.9546C8.28636 11.7923 8.73457 10.4377 9.5035 9.37931C10.0496 8.62764 10.7106 7.96661 11.4623 7.42049ZM32.9215 7.63542C32.8539 7.20827 32.828 6.71363 32.8183 5.87C35.6523 6.06535 37.2888 6.51314 38.5377 7.42049C39.2894 7.96661 39.9504 8.62764 40.4965 9.37931C41.4039 10.6282 41.8516 12.2646 42.047 15.0987C41.2034 15.0889 40.7087 15.0631 40.2816 14.9955C36.4929 14.3954 33.5216 11.4241 32.9215 7.63542Z" fill="url(#paint3_linear_1310_587)"/>
<defs>
<linearGradient id="paint0_linear_1310_587" x1="25" y1="2.60449" x2="25" y2="47.3962" gradientUnits="userSpaceOnUse">
<stop stop-color="white"/>
<stop offset="1" stop-color="#999999"/>
</linearGradient>
<linearGradient id="paint1_linear_1310_587" x1="25" y1="2.60449" x2="25" y2="47.3962" gradientUnits="userSpaceOnUse">
<stop stop-color="white"/>
<stop offset="1" stop-color="#999999"/>
</linearGradient>
<linearGradient id="paint2_linear_1310_587" x1="25" y1="2.60449" x2="25" y2="47.3962" gradientUnits="userSpaceOnUse">
<stop stop-color="white"/>
<stop offset="1" stop-color="#999999"/>
</linearGradient>
<linearGradient id="paint3_linear_1310_587" x1="25" y1="2.60449" x2="25" y2="47.3962" gradientUnits="userSpaceOnUse">
<stop stop-color="white"/>
<stop offset="1" stop-color="#999999"/>
</linearGradient>
</defs>
</svg>
