<svg width="100" height="100" viewBox="0 0 100 100" fill="none" xmlns="http://www.w3.org/2000/svg">
<path d="M37.9458 22.6999C40.4374 15.4083 50.5124 15.1874 53.4666 22.0374L53.7166 22.7041L57.0791 32.5374C57.8497 34.7926 59.095 36.8562 60.7309 38.5892C62.3668 40.3222 64.3554 41.6841 66.5624 42.5833L67.4666 42.9207L77.2999 46.2791C84.5916 48.7708 84.8124 58.8457 77.9666 61.7999L77.2999 62.0499L67.4666 65.4124C65.2107 66.1825 63.1462 67.4275 61.4125 69.0635C59.6788 70.6995 58.3162 72.6883 57.4166 74.8958L57.0791 75.7957L53.7208 85.6332C51.2291 92.9249 41.1541 93.1457 38.2041 86.2999L37.9458 85.6332L34.5874 75.7999C33.8174 73.544 32.5723 71.4795 30.9364 69.7458C29.3004 68.0121 27.3116 66.6495 25.1041 65.7499L24.2041 65.4124L14.3708 62.0541C7.07495 59.5624 6.85411 49.4874 13.7041 46.5374L14.3708 46.2791L24.2041 42.9207C26.4593 42.1502 28.5229 40.9049 30.2559 39.269C31.9888 37.633 33.3508 35.6445 34.2499 33.4374L34.5874 32.5374L37.9458 22.6999ZM45.8333 25.3916L42.4749 35.2249C41.3016 38.6637 39.3927 41.8053 36.8813 44.4312C34.37 47.057 31.3164 49.1038 27.9333 50.4291L26.8916 50.8083L17.0583 54.1666L26.8916 57.5249C30.3304 58.6983 33.472 60.6071 36.0978 63.1185C38.7236 65.6299 40.7705 68.6835 42.0958 72.0666L42.4749 73.1082L45.8333 82.9416L49.1916 73.1082C50.365 69.6695 52.2738 66.5278 54.7852 63.902C57.2966 61.2762 60.3502 59.2294 63.7333 57.9041L64.7749 57.5291L74.6083 54.1666L64.7749 50.8083C61.3362 49.6349 58.1945 47.726 55.5687 45.2146C52.9429 42.7033 50.8961 39.6497 49.5708 36.2666L49.1958 35.2249L45.8333 25.3916ZM79.1666 8.33325C79.9461 8.33325 80.71 8.55191 81.3714 8.96438C82.0328 9.37686 82.5653 9.9666 82.9083 10.6666L83.1083 11.1541L84.5666 15.4291L88.8458 16.8874C89.627 17.1528 90.3118 17.6441 90.8134 18.2991C91.315 18.9541 91.6109 19.7433 91.6636 20.5667C91.7163 21.39 91.5233 22.2105 91.1092 22.924C90.6951 23.6376 90.0784 24.2122 89.3374 24.5749L88.8458 24.7749L84.5708 26.2333L83.1124 30.5124C82.8466 31.2934 82.3549 31.9778 81.6996 32.4791C81.0444 32.9803 80.2551 33.2757 79.4318 33.3279C78.6085 33.3801 77.7882 33.1868 77.0749 32.7723C76.3616 32.3579 75.7873 31.741 75.4249 30.9999L75.2249 30.5124L73.7666 26.2374L69.4874 24.7791C68.7063 24.5137 68.0215 24.0224 67.5198 23.3674C67.0182 22.7124 66.7223 21.9232 66.6696 21.0998C66.617 20.2765 66.8099 19.456 67.224 18.7425C67.6382 18.0289 68.2548 17.4543 68.9958 17.0916L69.4874 16.8916L73.7624 15.4333L75.2208 11.1541C75.5017 10.3309 76.0333 9.6162 76.7409 9.11033C77.4486 8.60446 78.2968 8.33273 79.1666 8.33325Z" fill="url(#paint0_linear_1080_57053)"/>
<defs>
<linearGradient id="paint0_linear_1080_57053" x1="50.1998" y1="8.33325" x2="50.1998" y2="91.2734" gradientUnits="userSpaceOnUse">
<stop stop-color="#999999"/>
<stop offset="1"/>
</linearGradient>
</defs>
</svg>
