<svg width="100" height="100" viewBox="0 0 100 100" fill="none" xmlns="http://www.w3.org/2000/svg">
<path d="M18.3333 87.5L44.5833 61.25C46.6667 62.9167 49.0625 64.2361 51.7708 65.2083C54.4792 66.1806 57.3611 66.6667 60.4167 66.6667C67.9861 66.6667 74.3917 64.0444 79.6333 58.8C84.875 53.5556 87.4972 47.15 87.5 39.5833C87.5028 32.0167 84.8806 25.6111 79.6333 20.3667C74.3861 15.1222 67.9806 12.5 60.4167 12.5C52.8528 12.5 46.4458 15.1222 41.1958 20.3667C35.9458 25.6111 33.325 32.0167 33.3333 39.5833C33.3333 42.6389 33.8194 45.5208 34.7917 48.2292C35.7639 50.9375 37.0833 53.3333 38.75 55.4167L12.5 81.6667L18.3333 87.5ZM60.4167 58.3333C55.2083 58.3333 50.7806 56.5111 47.1333 52.8667C43.4861 49.2222 41.6639 44.7944 41.6667 39.5833C41.6694 34.3722 43.4917 29.9458 47.1333 26.3042C50.775 22.6625 55.2028 20.8389 60.4167 20.8333C65.6306 20.8278 70.0569 22.6514 73.6958 26.3042C77.3347 29.9569 79.1583 34.3833 79.1667 39.5833C79.175 44.7833 77.3514 49.2111 73.6958 52.8667C70.0403 56.5222 65.6139 58.3444 60.4167 58.3333Z" fill="url(#paint0_linear_1080_57044)"/>
<defs>
<linearGradient id="paint0_linear_1080_57044" x1="50" y1="12.5" x2="50" y2="87.5" gradientUnits="userSpaceOnUse">
<stop stop-color="#999999"/>
<stop offset="1"/>
</linearGradient>
</defs>
</svg>
