<svg width="50" height="50" viewBox="0 0 50 50" fill="none" xmlns="http://www.w3.org/2000/svg">
<path d="M26.5625 18.7503C26.5625 17.8874 25.8629 17.1878 25 17.1878C24.137 17.1878 23.4375 17.8874 23.4375 18.7503V23.4378H18.75C17.887 23.4378 17.1875 24.1374 17.1875 25.0003C17.1875 25.8633 17.887 26.5628 18.75 26.5628H23.4375V31.2503C23.4375 32.1133 24.137 32.8128 25 32.8128C25.8629 32.8128 26.5625 32.1133 26.5625 31.2503V26.5628H31.25C32.1129 26.5628 32.8125 25.8633 32.8125 25.0003C32.8125 24.1374 32.1129 23.4378 31.25 23.4378H26.5625V18.7503Z" fill="url(#paint0_linear_1333_1178)"/>
<path fill-rule="evenodd" clip-rule="evenodd" d="M19.9227 2.60449C16.7106 2.60449 14.1067 5.20839 14.1067 8.42046C14.1067 9.90665 12.9019 11.1114 11.4157 11.1114H10.7722C7.4888 11.1114 4.56397 13.6518 4.74211 17.1805C4.95362 21.3701 5.88415 27.8999 9.27821 34.0853C10.2288 35.8177 11.4984 37.5195 12.8708 39.1051L12.9741 39.2245C14.9485 41.5058 16.5946 43.4078 18.3643 44.7043C20.2679 46.0989 22.2995 46.7935 25.0001 46.7935C27.7007 46.7935 29.7323 46.0989 31.6359 44.7043C33.4056 43.4078 35.0517 41.5058 37.0261 39.2245L37.1294 39.1051C38.5018 37.5195 39.7714 35.8177 40.722 34.0853C44.2289 27.6943 45.1034 20.4725 45.2758 15.9703C45.4104 12.4586 42.5064 9.89616 39.2047 9.89616H37.9768C36.8262 9.89616 35.8935 8.96342 35.8935 7.81283C35.8935 4.93634 33.5617 2.60449 30.6852 2.60449H19.9227ZM17.2317 8.42046C17.2317 6.93428 18.4365 5.72949 19.9227 5.72949H30.6852C31.8358 5.72949 32.7685 6.66223 32.7685 7.81283C32.7685 10.6893 35.1004 13.0212 37.9768 13.0212H39.2047C40.9498 13.0212 42.2118 14.3193 42.1531 15.8507C41.9883 20.1523 41.1496 26.81 37.9823 32.582C37.172 34.0587 36.05 35.5771 34.7665 37.06C32.6621 39.4913 31.2411 41.1197 29.789 42.1834C28.44 43.1718 27.0601 43.6685 25.0001 43.6685C22.9401 43.6685 21.5602 43.1718 20.2111 42.1834C18.7591 41.1197 17.3381 39.4913 15.2337 37.06C13.9502 35.5771 12.8282 34.0587 12.0179 32.582C8.93768 26.9686 8.06199 20.962 7.86314 17.0229C7.78748 15.5243 9.02196 14.2364 10.7722 14.2364H11.4157C14.6278 14.2364 17.2317 11.6325 17.2317 8.42046Z" fill="url(#paint1_linear_1333_1178)"/>
<defs>
<linearGradient id="paint0_linear_1333_1178" x1="25.0074" y1="2.60449" x2="25.0074" y2="46.7935" gradientUnits="userSpaceOnUse">
<stop stop-color="white"/>
<stop offset="1" stop-color="#999999"/>
</linearGradient>
<linearGradient id="paint1_linear_1333_1178" x1="25.0074" y1="2.60449" x2="25.0074" y2="46.7935" gradientUnits="userSpaceOnUse">
<stop stop-color="white"/>
<stop offset="1" stop-color="#999999"/>
</linearGradient>
</defs>
</svg>
